<?xml version="1.0" encoding="utf-8"?>
<!-- Generator: Adobe Illustrator 16.0.4, SVG Export Plug-In . SVG Version: 6.00 Build 0)  -->
<!DOCTYPE svg PUBLIC "-//W3C//DTD SVG 1.1//EN" "http://www.w3.org/Graphics/SVG/1.1/DTD/svg11.dtd">
<svg version="1.1" xmlns="http://www.w3.org/2000/svg" xmlns:xlink="http://www.w3.org/1999/xlink" x="0px" y="0px" width="720px"
	 height="720px" viewBox="0 0 720 720" enable-background="new 0 0 720 720" xml:space="preserve">
<g id="car" display="none">
</g>
<g id="background">
	<circle fill="#478BAA" cx="360" cy="357.003" r="331.5"/>
	<path fill="#23718C" d="M365.642,688.432C544.149,685.45,688.3,541.389,691.424,362.916l-97.421-97.42L360,140.506l-57.244,36.01
		l-23.235,75.491l-27.147-29.982l-126.639,43.471l113.31,113.31l1.476-0.084l-43.442,141.147L365.642,688.432z"/>
</g>
<g id="Layer_4" display="none">
</g>
<g id="icons">
	<path fill="#8ABFCD" d="M476.936,194.047L359.87,122.599l-117.067,71.448l-117.068,71.448h71.343v254.373h81.562v17.479h162.457
		v-17.479h81.846V265.495h71.061L476.936,194.047z M356.312,514.125h-40.133v-80.032h40.133V514.125z M321.069,194.041
		c0-20.93,16.516-37.995,37.225-38.89v15.028c-7.902,1.191-14.073,11.245-14.073,23.474c0,18.278-5.219,22.868-4.561,23.592
		s20.21,0.775,20.21,0.775s19.552-0.052,20.21-0.775c0.657-0.724-4.562-5.313-4.562-23.592c0-11.979-5.924-21.866-13.595-23.384
		v-15.112c20.608,1.002,37.009,18.026,37.009,38.884c0,21.501-17.43,38.932-38.932,38.932S321.069,215.542,321.069,194.041z
		 M403.561,514.125h-40.133v-80.032h40.133V514.125z"/>
</g>
</svg>
