<?xml version="1.0" encoding="utf-8"?>
<!-- Generator: Adobe Illustrator 16.0.4, SVG Export Plug-In . SVG Version: 6.00 Build 0)  -->
<!DOCTYPE svg PUBLIC "-//W3C//DTD SVG 1.1//EN" "http://www.w3.org/Graphics/SVG/1.1/DTD/svg11.dtd">
<svg version="1.1" xmlns="http://www.w3.org/2000/svg" xmlns:xlink="http://www.w3.org/1999/xlink" x="0px" y="0px" width="720px"
	 height="720px" viewBox="0 0 720 720" enable-background="new 0 0 720 720" xml:space="preserve">
<g id="car" display="none">
</g>
<g id="background">
	<path fill="#478BAA" d="M691.45,356.999c0,1.86-0.021,3.71-0.05,5.56c-0.33,19.881-2.4,39.33-6.091,58.211
		c-2.59,13.27-5.97,26.26-10.09,38.92c-37.359,114.84-135.729,202.14-256.84,223.68c-15.37,2.729-31.09,4.4-47.11,4.939
		c-3.76,0.131-7.529,0.19-11.319,0.19c-13.86,0-27.51-0.85-40.92-2.5c-163.78-20.16-290.58-159.77-290.58-329
		c0-183.08,148.41-331.5,331.5-331.5C543.03,25.499,691.45,173.919,691.45,356.999z"/>
	<path fill="#23718C" d="M675.22,459.689c-37.359,114.84-135.729,202.14-256.84,223.68c-15.37,2.729-31.09,4.4-47.11,4.939
		L203.2,520.249l144.64-82.34l-104.76-104.76v-65.591l21.13-38.59l41.78-15.75l64.319-7.29l56.15,56.16l25.58-25.58L675.22,459.689z
		"/>
</g>
<g id="Layer_4" display="none">
</g>
<g id="icons">
	<g>
		<path fill="#8ABFCD" d="M517.844,398.178c0,13.553-2.174,34.242-6.534,62.068c-4.349,27.838-6.534,48.763-6.534,62.788
			c-16.944,0-49.366-0.957-97.278-2.895c-24.199-0.969-41.628-1.453-52.261-1.453c-63.416,0-109.627,1.453-138.658,4.348h-5.081
			c-6.297,0-9.44-2.173-9.44-6.533c0-4.349,30.721-22.013,92.198-52.994c36.298-18.385,65.565-42.099,87.838-71.142
			c22.249-29.031,33.391-58.075,33.391-87.118c0-26.124-7.986-47.298-23.95-63.521c-15.975-16.199-36.794-24.316-62.434-24.316
			c-23.726,0-43.08,6.298-58.074,18.882c-15.006,12.583-22.509,24.684-22.509,36.298c0,4.845,1.205,7.869,3.627,9.074
			c2.422,1.205,11.26,3.627,26.502,7.255s22.864,11.744,22.864,24.317c0,8.72-3.025,16.104-9.075,22.143
			c-6.062,6.061-13.435,9.074-22.143,9.074c-12.099,0-22.497-5.188-31.217-15.608c-8.708-10.398-13.068-22.863-13.068-37.386
			c0-26.609,12.1-48.999,36.298-67.148c24.199-18.149,53.727-27.224,88.571-27.224c39.677,0,71.378,11.143,95.104,33.392
			c23.702,22.272,35.565,47.676,35.565,76.224c0,39.204-24.4,75.029-73.188,107.439c-9.748,6.298-26.963,16.105-51.599,29.409
			c-24.636,13.316-40.859,21.411-48.657,24.317c-3.899,0.98-6.109,1.938-6.593,2.906c0,0.97,4.383,1.701,13.162,2.174
			c44.829,1.454,83.797,1.702,116.929,0.733c27.767-0.484,44.947-3.876,51.528-10.174c6.569-6.273,12.052-23.95,16.447-52.993
			c1.453-9.678,2.789-15.608,4.018-17.782c1.217-2.175,3.532-3.273,6.947-3.273C515.409,389.458,517.844,392.365,517.844,398.178z"
			/>
	</g>
</g>
</svg>
