<?xml version="1.0" encoding="utf-8"?>
<!-- Generator: Adobe Illustrator 16.0.4, SVG Export Plug-In . SVG Version: 6.00 Build 0)  -->
<!DOCTYPE svg PUBLIC "-//W3C//DTD SVG 1.1//EN" "http://www.w3.org/Graphics/SVG/1.1/DTD/svg11.dtd">
<svg version="1.1" xmlns="http://www.w3.org/2000/svg" xmlns:xlink="http://www.w3.org/1999/xlink" x="0px" y="0px" width="720px"
	 height="720px" viewBox="0 0 720 720" enable-background="new 0 0 720 720" xml:space="preserve">
<g id="car" display="none">
</g>
<g id="background">
	<circle fill="#478BAA" cx="364.202" cy="355.797" r="331.5"/>
	<path fill="#23718C" d="M440.521,184.607l-33.913,16.937l-41.058-41.057l-70.235,40.757l-52.747,82.226l82.252,82.251
		L206.546,550.861l135.695,135.694c7.261,0.476,14.579,0.742,21.961,0.742c157.152,0,288.76-109.357,322.887-256.124
		L440.521,184.607z"/>
</g>
<g id="Layer_4" display="none">
</g>
<g id="icons">
	<g>
		<path fill="#8ABFCD" d="M516.615,372.728v-65.128c0-5.631-5.018-10.195-11.208-10.195H214.593c-6.19,0-11.208,4.564-11.208,10.195
			v65.128c0,5.631,5.018,10.195,11.208,10.195c-6.19,0-11.208,4.564-11.208,10.195v65.129c0,5.631,5.018,10.195,11.208,10.195
			c-6.19,0-11.208,4.564-11.208,10.195v65.129c0,5.631,5.018,10.195,11.208,10.195h290.814c6.19,0,11.208-4.564,11.208-10.195
			v-65.129c0-5.631-5.018-10.195-11.208-10.195c6.19,0,11.208-4.564,11.208-10.195v-65.129c0-5.631-5.018-10.195-11.208-10.195
			C511.598,382.923,516.615,378.358,516.615,372.728z M372.059,428.167l4.408,47.816c0,7.756-10.386,17.99-16.553,17.99
			c-6.168,0-16.38-10.285-16.38-18.041l4.272-47.836c-9.031-4.488-15.24-13.805-15.24-24.574c0-15.152,12.282-27.434,27.435-27.434
			c15.151,0,27.434,12.281,27.434,27.434C387.435,414.347,381.164,423.704,372.059,428.167z"/>
		<path fill="#8ABFCD" d="M360,188.146c44.243,0,80.109,40.828,80.109,95.323h37.322c0-79.705-52.576-132.646-117.432-132.646
			s-117.432,54.622-117.432,132.646h37.322C279.891,227.294,315.757,188.146,360,188.146z"/>
	</g>
</g>
</svg>
