<?xml version="1.0" encoding="utf-8"?>
<!-- Generator: Adobe Illustrator 16.0.4, SVG Export Plug-In . SVG Version: 6.00 Build 0)  -->
<!DOCTYPE svg PUBLIC "-//W3C//DTD SVG 1.1//EN" "http://www.w3.org/Graphics/SVG/1.1/DTD/svg11.dtd">
<svg version="1.1" xmlns="http://www.w3.org/2000/svg" xmlns:xlink="http://www.w3.org/1999/xlink" x="0px" y="0px" width="720px"
	 height="720px" viewBox="0 0 720 720" enable-background="new 0 0 720 720" xml:space="preserve">
<g id="car" display="none">
</g>
<g id="background">
	<path fill="#478BAA" d="M691.45,356.999c0,1.86-0.021,3.71-0.05,5.56c-0.33,19.881-2.4,39.33-6.091,58.211
		c-26.05,133.72-132.47,238.689-266.93,262.6c-18.97,3.37-38.49,5.13-58.43,5.13c-13.86,0-27.51-0.85-40.92-2.5
		c-163.78-20.16-290.58-159.77-290.58-329c0-183.08,148.41-331.5,331.5-331.5C543.03,25.499,691.45,173.919,691.45,356.999z"/>
	<path fill="#23718C" d="M685.31,420.77c-26.05,133.72-132.47,238.689-266.93,262.6l-163.37-163.36l105.49-13.87l11.26-146.79
		l-33.25-33.25l18.97-18.97L257.33,206.979h200.3l6.95-6.95L685.31,420.77z"/>
</g>
<g id="Layer_4" display="none">
</g>
<g id="icons">
	<g>
		<path fill="#8ABFCD" d="M466.076,204.142c0,4.95-4.131,7.421-12.362,7.421h-23.283c-17.952,0-28.736,1.356-32.377,4.059
			c-3.642,2.713-5.449,10.714-5.449,24.003v239.989c0,14.285,2.226,22.9,6.678,25.857c4.454,2.958,17.812,3.943,40.075,2.946h16.328
			c6.924-0.487,10.391,1.982,10.391,7.42c0,4.952-3.479,7.167-10.426,6.68h-19.365H402.03c-0.997,0-4.476,0-10.423,0
			c-6.959,0-13.673,0-20.119,0h-23.076c-1.497,0-6.216,0-14.159,0c-8.442,0-19.864,0-34.254,0h-36.492
			c-6.459,0-9.683-1.971-9.683-5.926c0-3.455,2.227-5.426,6.68-5.913c4.453-0.487,19.295-0.985,44.528-1.484
			c9.393,0,16.072-1.727,20.038-5.184c3.954-3.455,5.937-11.596,5.937-24.432V241.179c0-14.809-2.853-23.691-8.535-26.659
			c-5.693-2.957-23.133-4.186-52.32-3.698c-9.404,0-14.101-2.622-14.101-7.862c0-3.666,3.2-5.498,9.613-5.498
			c10.343,0,27.111,0.256,50.291,0.743l38.452-0.743H455.72C462.621,197.461,466.076,199.688,466.076,204.142z"/>
	</g>
</g>
</svg>
