<?xml version="1.0" encoding="utf-8"?>
<!-- Generator: Adobe Illustrator 16.0.4, SVG Export Plug-In . SVG Version: 6.00 Build 0)  -->
<!DOCTYPE svg PUBLIC "-//W3C//DTD SVG 1.1//EN" "http://www.w3.org/Graphics/SVG/1.1/DTD/svg11.dtd">
<svg version="1.1" xmlns="http://www.w3.org/2000/svg" xmlns:xlink="http://www.w3.org/1999/xlink" x="0px" y="0px" width="720px"
	 height="720px" viewBox="0 0 720 720" enable-background="new 0 0 720 720" xml:space="preserve">
<g id="car" display="none">
</g>
<g id="background">
	<path fill="#478BAA" d="M691.45,356.999c0,1.86-0.021,3.71-0.05,5.56c-2.971,180.53-150.23,325.94-331.45,325.94
		c-13.86,0-27.51-0.85-40.92-2.5c-163.78-20.16-290.58-159.77-290.58-329c0-183.08,148.41-331.5,331.5-331.5
		C543.03,25.499,691.45,173.919,691.45,356.999z"/>
	<path fill="#23718C" d="M691.4,362.559c-2.971,180.53-150.23,325.94-331.45,325.94c-13.86,0-27.51-0.85-40.92-2.5l-163.84-163.84
		l10.96-10.96l-6.15-0.66l2.03-278.77l76.36,76.359l119.18-86.5l98.59,98.59l96.45-96.449L691.4,362.559z"/>
</g>
<g id="Layer_4" display="none">
</g>
<g id="icons">
	<g>
		<path fill="#8ABFCD" d="M557.881,231.705v271.56c-26.374-26.373-167.293-30.633-197.926,0l0-0.004v0.004
			c-30.633-30.633-171.552-26.373-197.926,0V231.767c-2.55,1.747-4.852,3.606-6.838,5.593v284.797
			c27.291-27.29,173.111-31.697,204.81,0c31.698-31.697,177.519-27.29,204.81,0V237.359
			C562.8,235.349,560.469,233.471,557.881,231.705z"/>
		<g>
			<path fill="#8ABFCD" d="M167.297,223.772v267.901c25.047-25.047,156.211-29.598,190.275-2.111V221.625
				C323.373,193.166,200.625,190.446,167.297,223.772z"/>
			<path fill="#8ABFCD" d="M362.428,221.551V489.49c34.204-27.405,165.162-22.842,190.187,2.184V223.772
				C519.316,190.475,396.753,193.162,362.428,221.551z"/>
		</g>
	</g>
</g>
</svg>
