<?xml version="1.0" encoding="utf-8"?>
<!-- Generator: Adobe Illustrator 16.0.4, SVG Export Plug-In . SVG Version: 6.00 Build 0)  -->
<!DOCTYPE svg PUBLIC "-//W3C//DTD SVG 1.1//EN" "http://www.w3.org/Graphics/SVG/1.1/DTD/svg11.dtd">
<svg version="1.1" xmlns="http://www.w3.org/2000/svg" xmlns:xlink="http://www.w3.org/1999/xlink" x="0px" y="0px" width="720px"
	 height="720px" viewBox="0 0 720 720" enable-background="new 0 0 720 720" xml:space="preserve">
<g id="car" display="none">
</g>
<g id="background">
	<circle fill="#478BAA" cx="359.946" cy="360.004" r="331.5"/>
	<path fill="#23718C" d="M691.445,360.004c0-21.13-2-41.79-5.779-61.821l-95.785-95.785L369.56,365.831l-144.882,97.638
		l-99.026,61.423l157.702,157.702c24.587,5.815,50.228,8.91,76.593,8.91C543.027,691.504,691.445,543.086,691.445,360.004z"/>
</g>
<g id="Layer_4" display="none">
	<g id="coXYn6_1_" display="inline" opacity="0.5">
		
			<image overflow="visible" width="600" height="400" id="coXYn6_2_" xlink:href="F8D72262F14FCB0B.jpg"  transform="matrix(0.7457 0 0 0.7457 121.1689 197.1836)">
		</image>
	</g>
</g>
<g id="icons">
	<path fill="#8ABFCD" d="M572.666,198.539c-19.368,8.049-144.345,86.426-155.977,98.048c-1.33,1.554-1.118,4.387-1.118,4.387
		S260.992,404.025,259.247,405.611c-2.116,1.887-1.128,5.828-1.741,6.669c-0.613,0.844-8.424,8.31-10.567,8.971
		c-2.627,1.264-56.764,48.564-66.043,48.307c-2.893,3.735-2.264,4.386-2.264,4.386s2.386,2.157,1.886,4.135
		c-0.503,1.977-29.006,17.364-33.323,21.928c-4.317,4.562-21.046,22.753-21.543,24.886c1.063,0.133,1.671,0.343,2.138,1.023
		c1.853-0.705,5.383-5.084,9.931-5.231c7.288,0.495,22.773-3.613,29.412-4.373c3.514,0.072,14.535-12.991,26.742-18.909
		c2.215,1.826,1.899,1.704,2.63,3.076c0.401,0.33,3.691-0.631,6.264-0.629c2.902-8.883,65.67-43.109,69.055-44.61
		c1.818-0.502,2.453-2.71,4.371-3.758c2.712-2.029,4.817-2.62,6.233-2.68c1.413-0.061,4.578,0.438,6.378,0.039
		c1.8-0.399,151.306-112.081,151.306-112.081s3.935,0.785,5.347,0.227c1.416-0.562,17.707-12.76,17.707-12.76
		s-9.335,10.521-8.671,11.941c0.66,1.422,1.552,3.534,4.856,3.617c3.3,0.081,116.771-86.302,123.788-101.326
		c0.111-3.322,0.501-5.609-1.109-7.222c2.688-2.254,10.562-9.019,10.874-12.713C596.999,197.056,578.171,196.608,572.666,198.539z
		 M494.305,307.332c-5.527,2.079-10.803,1.734-10.803,1.734l50.16-36.832C533.662,272.234,499.828,305.252,494.305,307.332z"/>
</g>
</svg>
